<?xml version="1.0" encoding="utf-8"?>
<!-- Generator: Adobe Illustrator 25.4.1, SVG Export Plug-In . SVG Version: 6.00 Build 0)  -->
<svg version="1.1" xmlns="http://www.w3.org/2000/svg" xmlns:xlink="http://www.w3.org/1999/xlink" x="0px" y="0px"
	 viewBox="0 0 322.25 303.85" style="enable-background:new 0 0 322.25 303.85;" xml:space="preserve">
<style type="text/css">
	.st0{fill:none;stroke:#FFFFFF;stroke-linecap:round;stroke-linejoin:round;stroke-miterlimit:10;}
</style>
<g id="BACKGROUND">
</g>
<g id="OBJECTS">
	<g>
		<polyline class="st0" points="0.5,263.19 0.5,0.5 281.88,0.5 		"/>
		<path class="st0" d="M85.53,296.11C71.06,196.25,0.5,0.5,0.5,0.5S100,156.45,257.76,241.84"/>
		<path class="st0" d="M0.5,0.5c0,0,118.94,79.24,321.25,111.08"/>
		<path class="st0" d="M270.78,0.5c0,0-31.37,78.82,26.29,106.89c0,0-72.8,28.86-64.38,120.01c0,0-99.37-22.75-150.77,47.59
			c0,0-34.03-48.34-81.43-24.46c0,0,9.5,6.97,5.16,26.5c-4.34,19.54,6.24,26.32,6.24,26.32"/>
		<path class="st0" d="M0.5,212.17c0,0,28.15-23.76,65.27-5.73c0,0,35.98-56.15,98.06-27.74c0,0-4-72.76,56.18-88.39
			c0,0-36.3-44.58,0-89.8"/>
		<path class="st0" d="M0.5,161.69c0,0,21.16-21.37,51.01-5.53c0,0,14.91-38.28,58.74-25.06c0,0-12.51-53.28,44.97-60.19
			c0,0-33.21-39.47,5.9-70.41"/>
		<path class="st0" d="M0.5,113.75c0,0,12.64-23.15,36.17-5.79c0,0,10.67-26.64,34.83-17.12c0,0-1.37-42.25,35.45-37.71
			c0,0-24.32-26.22-2.25-52.63"/>
		<path class="st0" d="M0.5,73.95c0,0,7.38-11.26,24.13-3.1c0,0,6.62-14.99,22.54-8.12c0,0-2.23-24.91,21.5-26.02
			c0,0-13.54-19.57,3.47-36.21"/>
		<path class="st0" d="M0.5,47.54c0,0,6.24-6.51,16.33,0c0,0,3.98-12.66,12.01-7.69c0,0-3.07-17.16,15.05-15.05
			c0,0-12.82-12.72,2.38-24.3"/>
		<path class="st0" d="M0.5,31.26c0,0,2.77-6.23,9.98-2.3c0,0,0.77-6.75,7.15-3.95c0,0-0.39-9.69,9.33-9.05
			c0,0-9.28-10.58,1.03-15.46"/>
		<path class="st0" d="M114.57,135.26c0,0-7.61-55.53,68.61-55.39"/>
		<path class="st0" d="M187.22,81.1c0,0-55.27,27.28-34.34,88.59"/>
		<path class="st0" d="M223.02,0.5c0,0-14.11,29.85-4.52,55.54"/>
		<path class="st0" d="M272.59,0.5c0,0-4.25,12.39,7.28,27.77s7.73,20.8,7.73,21.89"/>
	</g>
</g>
</svg>
